<svg width="24" height="24" viewBox="0 0 24 24" fill="none" xmlns="http://www.w3.org/2000/svg">
  <path d="M20.3334 9.49999V16.1667C20.3334 17.0872 19.5872 17.8333 18.6667 17.8333H5.33335C4.41288 17.8333 3.66669 17.0872 3.66669 16.1667V7.83332C3.66669 6.91285 4.41288 6.16666 5.33335 6.16666H18.6667C19.5872 6.16666 20.3334 6.91285 20.3334 7.83332V9.49999ZM20.3334 9.49999H7.00002" stroke="black" stroke-width="1.16667" stroke-linecap="round" stroke-linejoin="round"/>
  <path d="M15.75 13.1516C15.9712 12.9537 16.2632 12.8333 16.5833 12.8333C17.2737 12.8333 17.8333 13.393 17.8333 14.0833C17.8333 14.7737 17.2737 15.3333 16.5833 15.3333C16.2632 15.3333 15.9712 15.213 15.75 15.0151" stroke="black" stroke-width="1.16667" stroke-linecap="round" stroke-linejoin="round"/>
  <path d="M15.75 13.1516C15.5289 12.9537 15.2369 12.8333 14.9167 12.8333C14.2264 12.8333 13.6667 13.393 13.6667 14.0833C13.6667 14.7737 14.2264 15.3333 14.9167 15.3333C15.2369 15.3333 15.5289 15.213 15.75 15.0151" stroke="black" stroke-width="1.16667" stroke-linecap="round" stroke-linejoin="round"/>
</svg>
