<svg width="24" height="24" viewBox="0 0 24 24" fill="none" xmlns="http://www.w3.org/2000/svg">
  <path d="M20.3334 9.49996V16.1666C20.3334 17.0871 19.5872 17.8333 18.6667 17.8333H5.33335C4.41288 17.8333 3.66669 17.0871 3.66669 16.1666V7.83329C3.66669 6.91282 4.41288 6.16663 5.33335 6.16663H18.6667C19.5872 6.16663 20.3334 6.91282 20.3334 7.83329V9.49996ZM20.3334 9.49996H7.00002" stroke="black" stroke-width="1.2" stroke-linecap="round" stroke-linejoin="round"/>
  <path d="M15.75 13.1516C15.9712 12.9537 16.2632 12.8334 16.5833 12.8334C17.2737 12.8334 17.8333 13.393 17.8333 14.0834C17.8333 14.7737 17.2737 15.3334 16.5833 15.3334C16.2632 15.3334 15.9712 15.213 15.75 15.0151" stroke="black" stroke-width="1.2" stroke-linecap="round" stroke-linejoin="round"/>
  <path d="M15.75 13.1516C15.5289 12.9537 15.2369 12.8334 14.9167 12.8334C14.2264 12.8334 13.6667 13.393 13.6667 14.0834C13.6667 14.7737 14.2264 15.3334 14.9167 15.3334C15.2369 15.3334 15.5289 15.213 15.75 15.0151" stroke="black" stroke-width="1.2" stroke-linecap="round" stroke-linejoin="round"/>
</svg>
