<svg width="24" height="24" viewBox="0 0 24 24" fill="none" xmlns="http://www.w3.org/2000/svg">
  <path fill-rule="evenodd" clip-rule="evenodd" d="M19.2917 15.9286C19.2917 15.9692 19.2878 16.0091 19.2803 16.0476C19.2878 16.0862 19.2917 16.1259 19.2917 16.1667C19.2917 16.5118 19.0118 16.7917 18.6667 16.7917H7.00001C6.42471 16.7917 5.95834 17.258 5.95834 17.8333C5.95834 18.4087 6.42471 18.875 7.00001 18.875H18.6667C19.0118 18.875 19.2917 19.1548 19.2917 19.5C19.2917 19.8452 19.0118 20.125 18.6667 20.125H7.00001C5.73436 20.125 4.70834 19.099 4.70834 17.8333V6.16667C4.70834 4.90102 5.73436 3.875 7.00001 3.875H18.1667C18.788 3.875 19.2917 4.37868 19.2917 5V15.9286ZM9.50001 7.20833C9.15484 7.20833 8.87501 7.48816 8.87501 7.83333C8.87501 8.17851 9.15484 8.45833 9.50001 8.45833H14.5C14.8452 8.45833 15.125 8.17851 15.125 7.83333C15.125 7.48816 14.8452 7.20833 14.5 7.20833H9.50001Z" fill="black"/>
</svg>
