<svg width="24" height="24" viewBox="0 0 24 24" fill="none" xmlns="http://www.w3.org/2000/svg">
  <path d="M7.83331 13.6667C6.4526 13.6667 5.33331 14.7859 5.33331 16.1667C5.33331 17.5474 6.4526 18.6667 7.83331 18.6667C8.12551 18.6667 8.406 18.6165 8.66665 18.5244" stroke="black" stroke-width="1.16667" stroke-linecap="round" stroke-linejoin="round"/>
  <path d="M5.55325 15.0038C4.4369 14.4652 3.66669 13.3225 3.66669 12C3.66669 10.9903 4.11563 10.0854 4.8248 9.47415" stroke="black" stroke-width="1.16667" stroke-linecap="round" stroke-linejoin="round"/>
  <path d="M4.85044 9.40682C4.62908 9.0759 4.5 8.67801 4.5 8.24999C4.5 7.0994 5.43274 6.16666 6.58333 6.16666C7.05242 6.16666 7.48531 6.32169 7.83353 6.58332" stroke="black" stroke-width="1.16667" stroke-linecap="round" stroke-linejoin="round"/>
  <path d="M8.03139 6.63776C7.90435 6.36845 7.83331 6.06751 7.83331 5.74999C7.83331 4.5994 8.76605 3.66666 9.91665 3.66666C11.0672 3.66666 12 4.5994 12 5.74999V18.6667" stroke="black" stroke-width="1.16667" stroke-linecap="round" stroke-linejoin="round"/>
  <path d="M8.66669 18.6667C8.66669 19.5872 9.41288 20.3333 10.3334 20.3333C11.2539 20.3333 12 19.5872 12 18.6667" stroke="black" stroke-width="1.16667" stroke-linecap="round" stroke-linejoin="round"/>
  <path d="M12 7.83334C12 9.21405 13.1192 10.3333 14.5 10.3333" stroke="black" stroke-width="1.16667" stroke-linecap="round" stroke-linejoin="round"/>
  <path d="M16.1666 13.6667C17.5474 13.6667 18.6666 14.7859 18.6666 16.1667C18.6666 17.5474 17.5474 18.6667 16.1666 18.6667C15.8745 18.6667 15.594 18.6165 15.3333 18.5244" stroke="black" stroke-width="1.16667" stroke-linecap="round" stroke-linejoin="round"/>
  <path d="M18.4468 15.0038C19.5631 14.4652 20.3334 13.3225 20.3334 12C20.3334 10.9903 19.8844 10.0854 19.1752 9.47415" stroke="black" stroke-width="1.16667" stroke-linecap="round" stroke-linejoin="round"/>
  <path d="M19.1496 9.40682C19.3709 9.0759 19.5 8.67801 19.5 8.24999C19.5 7.0994 18.5673 6.16666 17.4167 6.16666C16.9476 6.16666 16.5147 6.32169 16.1665 6.58332" stroke="black" stroke-width="1.16667" stroke-linecap="round" stroke-linejoin="round"/>
  <path d="M12 5.74999C12 4.5994 12.9327 3.66666 14.0833 3.66666C15.2339 3.66666 16.1667 4.5994 16.1667 5.74999C16.1667 6.06751 16.0957 6.36845 15.9686 6.63776" stroke="black" stroke-width="1.16667" stroke-linecap="round" stroke-linejoin="round"/>
  <path d="M15.3333 18.6667C15.3333 19.5872 14.5872 20.3333 13.6667 20.3333C12.7462 20.3333 12 19.5872 12 18.6667" stroke="black" stroke-width="1.16667" stroke-linecap="round" stroke-linejoin="round"/>
</svg>

