<svg width="24" height="24" viewBox="0 0 24 24" fill="none" xmlns="http://www.w3.org/2000/svg">
  <path fill-rule="evenodd" clip-rule="evenodd" d="M4 4H20C20.5523 4 21 4.44771 21 5V8C21 8.55228 20.5523 9 20 9H4C3.44772 9 3 8.55228 3 8V5C3 4.44772 3.44772 4 4 4ZM1 5C1 3.34315 2.34315 2 4 2H20C21.6569 2 23 3.34315 23 5V8C23 9.65685 21.6569 11 20 11H4C2.34315 11 1 9.65685 1 8V5ZM4 13C2.34315 13 1 14.3431 1 16V19C1 20.6569 2.34315 22 4 22H20C21.6569 22 23 20.6569 23 19V16C23 14.3431 21.6569 13 20 13H4Z" fill="black"/>
</svg>
