<svg width="24" height="24" viewBox="0 0 24 24" fill="none" xmlns="http://www.w3.org/2000/svg">
  <path fill-rule="evenodd" clip-rule="evenodd" d="M19 4H5C4.82084 4 4.64718 4.02356 4.48196 4.06774L11.2929 10.8787C11.6834 11.2692 12.3166 11.2692 12.7071 10.8787L19.518 4.06774C19.3528 4.02356 19.1792 4 19 4ZM20.9323 5.48196L14.1213 12.2929C12.9497 13.4645 11.0503 13.4645 9.87868 12.2929L3.06774 5.48196C3.02356 5.64718 3 5.82084 3 6V18C3 19.1046 3.89543 20 5 20H19C20.1046 20 21 19.1046 21 18V6C21 5.82084 20.9764 5.64718 20.9323 5.48196ZM5 2C2.79086 2 1 3.79086 1 6V18C1 20.2091 2.79086 22 5 22H19C21.2091 22 23 20.2091 23 18V6C23 3.79086 21.2091 2 19 2H5ZM16 14C14.8954 14 14 14.8954 14 16C14 17.1046 14.8954 18 16 18H17C18.1046 18 19 17.1046 19 16C19 14.8954 18.1046 14 17 14H16Z" fill="black"/>
</svg>
