<svg width="24" height="24" viewBox="0 0 24 24" fill="none" xmlns="http://www.w3.org/2000/svg">
  <path fill-rule="evenodd" clip-rule="evenodd" d="M4 2C2.34315 2 1 3.34315 1 5V13H3V5C3 4.44772 3.44772 4 4 4H5.53513C5.19479 4.58835 5 5.27143 5 6V13C5 15.2091 6.79086 17 9 17H10.5C9.11929 17 8 18.1193 8 19.5C8 20.8807 9.11929 22 10.5 22C11.8807 22 13 20.8807 13 19.5C13 18.1193 11.8807 17 10.5 17H17.5C16.1193 17 15 18.1193 15 19.5C15 20.8807 16.1193 22 17.5 22C18.8807 22 20 20.8807 20 19.5C20 18.1193 18.8807 17 17.5 17H19C21.2091 17 23 15.2091 23 13V6C23 3.79086 21.2091 2 19 2H9H4ZM9 4C7.89543 4 7 4.89543 7 6V13C7 14.1046 7.89543 15 9 15H19C20.1046 15 21 14.1046 21 13V6C21 4.89543 20.1046 4 19 4H9Z" fill="black"/>
</svg>
