<svg width="24" height="24" viewBox="0 0 24 24" fill="none" xmlns="http://www.w3.org/2000/svg">
  <path d="M12 14.5C13.3807 14.5 14.5 13.3807 14.5 12C14.5 10.6192 13.3807 9.5 12 9.5C10.6192 9.5 9.5 10.6192 9.5 12C9.5 13.3807 10.6192 14.5 12 14.5Z" stroke="black" stroke-width="1.16667" stroke-linecap="round" stroke-linejoin="round"/>
  <path d="M18.352 10.6628L17.4372 8.45399L18.6667 6.99999L17 5.33332L15.5539 6.56911L13.2982 5.64144L12.7794 3.66666H11.1508L10.6242 5.6676L8.42033 6.59662L6.99999 5.33332L5.33332 6.99999L6.54446 8.4907L5.64374 10.7052L3.66666 11.1667V12.8333L5.66758 13.3796L6.59645 15.5831L5.33332 17L6.99999 18.6667L8.49262 17.4502L10.6642 18.3436L11.1667 20.3333H12.8333L13.3371 18.3443L15.5459 17.4296C15.9141 17.6927 17 18.6667 17 18.6667L18.6667 17L17.4299 15.5412L18.3449 13.3317L20.3332 12.8143L20.3333 11.1667L18.352 10.6628Z" stroke="black" stroke-width="1.16667" stroke-linecap="round" stroke-linejoin="round"/>
</svg>

